<?xml version="1.0" encoding="UTF-8" standalone="no"?>
<!-- Created with Inkscape (http://www.inkscape.org/) -->

<svg
   version="1.1"
   id="svg9"
   xml:space="preserve"
   width="793.70135"
   height="793.70135"
   viewBox="0 0 793.70135 793.70135"
   sodipodi:docname="ramblers_icon_21_signpost_rgb.svg"
   inkscape:version="1.1.1 (3bf5ae0d25, 2021-09-20)"
   xmlns:inkscape="http://www.inkscape.org/namespaces/inkscape"
   xmlns:sodipodi="http://sodipodi.sourceforge.net/DTD/sodipodi-0.dtd"
   xmlns="http://www.w3.org/2000/svg"
   xmlns:svg="http://www.w3.org/2000/svg"><defs
     id="defs13" /><sodipodi:namedview
     id="namedview11"
     pagecolor="#ffffff"
     bordercolor="#666666"
     borderopacity="1.0"
     inkscape:pageshadow="2"
     inkscape:pageopacity="0.0"
     inkscape:pagecheckerboard="0"
     showgrid="false"
     inkscape:zoom="1.0192751"
     inkscape:cx="396.85068"
     inkscape:cy="396.85068"
     inkscape:window-width="1920"
     inkscape:window-height="1017"
     inkscape:window-x="-8"
     inkscape:window-y="-8"
     inkscape:window-maximized="1"
     inkscape:current-layer="g15" /><g
     id="g15"
     inkscape:groupmode="layer"
     inkscape:label="ramblers_icon_21_signpost_rgb"
     transform="matrix(1.3333333,0,0,-1.3333333,0,793.70133)"><path
       d="m 514.8846,499.6424 -28.123,25.587 -35.205,-2.941 -34.721,-2.885 -34.769,-0.864 -34.83,1.49 -19.882,-1.304 -2.226,43.829 -48.94,-2.476 -49.924,3.504 1.738,-45.515 1.681,-44.018 -0.222,-3.124 -2.984,0.031 -31.682,0.149 -31.654,-0.654 -31.672,0.279 -31.968,1.949 -22.894,-26.076 -23.543,-26.232 22.706,-26.968 23.586,-25.707 32.066,3.903 31.85,-0.947 31.64,2.399 31.568,3.306 2.961,-0.105 0.901,-34.184 -0.482,-43.977 -0.223,-43.977 0.978,-43.975 -0.417,-43.957 -3.019,-43.992 0.22,-43.98 -0.228,-45.413 54.355,-1.105 54.226,1.331 -3.749,45.225 2.057,44.096 -1.817,43.97 1.059,44.039 -2.533,43.956 -0.37,43.985 0.747,44.006 -3.667,43.923 -2.355,36.018 22.263,-0.239 34.721,-0.179 34.738,0.724 34.729,-0.324 35.037,-2.217 27.41,26.077 28.188,26.325 z"
       style="fill:#9bc8ab;fill-opacity:1;fill-rule:nonzero;stroke:none"
       id="path19" /></g></svg>
