<?xml version="1.0" encoding="UTF-8" standalone="no"?>
<!-- Created with Inkscape (http://www.inkscape.org/) -->

<svg
   version="1.1"
   id="svg9"
   xml:space="preserve"
   width="24.4573"
   height="26.5945"
   viewBox="0 0 24.4573 26.594499"
   sodipodi:docname="clock.svg"
   inkscape:version="1.1.1 (3bf5ae0d25, 2021-09-20)"
   xmlns:inkscape="http://www.inkscape.org/namespaces/inkscape"
   xmlns:sodipodi="http://sodipodi.sourceforge.net/DTD/sodipodi-0.dtd"
   xmlns="http://www.w3.org/2000/svg"
   xmlns:svg="http://www.w3.org/2000/svg"><defs
     id="defs13" /><sodipodi:namedview
     id="namedview11"
     pagecolor="#ffffff"
     bordercolor="#666666"
     borderopacity="1.0"
     inkscape:pageshadow="2"
     inkscape:pageopacity="0.0"
     inkscape:pagecheckerboard="0"
     showgrid="false"
     inkscape:zoom="8.1542005"
     inkscape:cx="58.190867"
     inkscape:cy="32.069361"
     inkscape:window-width="1920"
     inkscape:window-height="1017"
     inkscape:window-x="-8"
     inkscape:window-y="-8"
     inkscape:window-maximized="1"
     inkscape:current-layer="g15"
     fit-margin-top="0"
     fit-margin-left="0"
     fit-margin-right="0"
     fit-margin-bottom="0" /><g
     id="g15"
     inkscape:groupmode="layer"
     inkscape:label="ramblers_icon_21_signpost_rgb"
     transform="matrix(1.3333333,0,0,-1.3333333,0,793.70133)"><path
       style="fill:#999999;fill-opacity:1;stroke-width:0.00848095"
       d="m 9.01731,577.03278 -0.1747072,0.002 -0.055124,0.002 -0.055132,0.002 -0.1526577,0.009 -0.1526586,0.009 -0.1314557,0.0122 -0.1314567,0.0122 -0.1738605,0.0217 -0.1738597,0.0217 -0.1780996,0.0297 -0.1781012,0.0297 -0.16529,0.0341 -0.1652916,0.0342 -0.1861808,0.0462 -0.1861808,0.0462 -0.1489064,0.0426 -0.1489064,0.0427 -0.2247467,0.0749 -0.2247459,0.0749 -0.1568671,0.0607 -0.1568638,0.0607 -0.1810497,0.0772 -0.1810596,0.0773 -0.2430217,0.12016 -0.2430217,0.12017 -0.1559313,0.087 -0.1559313,0.087 -0.1409027,0.0851 -0.1409027,0.0851 -0.1823412,0.12109 -0.1823403,0.1211 -0.1187336,0.0867 -0.1187337,0.0867 -0.121111,0.0934 -0.1211118,0.0934 -0.129392,0.10802 -0.1293928,0.10803 -0.1311397,0.11824 -0.1311397,0.11825 -0.1222077,0.11819 -0.1222078,0.1182 -0.1339479,0.14214 -0.1339479,0.14215 -0.1065288,0.12166 -0.1065289,0.12166 -0.089883,0.10935 -0.089882,0.10936 -0.1521527,0.20251 -0.1521536,0.20251 -0.1385649,0.20881 -0.1385649,0.20881 -0.088733,0.14843 -0.088733,0.14842 -0.065802,0.11806 -0.065802,0.11808 -0.087529,0.17029 -0.0875302,0.17028 -0.0779322,0.16962 -0.0779323,0.16961 -0.069936,0.16983 -0.069936,0.16981 -0.0488768,0.13126 -0.0488768,0.13125 -0.0618738,0.18658 -0.0618738,0.18658 -0.0424897,0.14841 -0.0424897,0.14843 -0.0423412,0.16962 -0.0423412,0.16962 -0.0339076,0.16114 -0.0339159,0.16114 -0.0300457,0.17809 -0.0300457,0.17811 -0.0210757,0.15688 -0.02108396,0.15691 -0.01708172,0.18658 -0.01708171,0.18658 -0.0082768,0.1569 -0.008285,0.15689 L 0.0052813,585.99126 0,586.17785 l 0.00914326,0.25443 0.00914326,0.25442 0.01293094,0.16538 0.01292269,0.16537 0.01706521,0.15267 0.01707347,0.15265 0.0255318,0.17386 0.0255318,0.17386 0.0295753,0.15691 0.0295753,0.15689 0.0342707,0.15612 0.0342707,0.15611 0.30551931,0.86584 0.30551932,0.86584 0.00968,0.0182 0.00968,0.0182 0.78024914,1.16043 0.7802491,1.16043 0.2035448,0.20446 0.2035439,0.20446 0.1060131,0.089 0.1060131,0.089 0.1229743,0.0977 0.1229744,0.0976 0.1653791,0.1229 0.1653782,0.1229 0.1738606,0.12281 0.1738605,0.12282 0.2120237,0.14486 0.2120237,0.14486 0.1993032,0.12992 0.1993041,0.12992 0.1102513,0.0453 0.1102514,0.0453 0.2501894,0.0961 0.2501885,0.0961 0.2162645,0.0783 0.2162644,0.0783 0.2458365,0.0842 0.2458364,0.0842 0.212136,0.0667 0.2121368,0.0667 0.1823395,0.0523 0.1823395,0.0523 0.178102,0.0454 0.1781013,0.0454 0.1653782,0.0338 0.1653791,0.0337 0.1144921,0.0172 0.1144929,0.0172 0.1017724,0.009 0.1017715,0.009 0.1356949,0.006 0.1356948,0.006 0.1993032,-0.009 0.1993041,-0.009 0.1441763,-0.013 0.1441763,-0.0129 0.1653782,-0.021 0.1653791,-0.021 0.228985,-0.0378 0.2289854,-0.0378 0.17386,-0.0346 0.173861,-0.0346 0.17386,-0.0382 0.173861,-0.0382 0.237467,-0.0581 0.237467,-0.0581 0.195063,-0.0523 0.195062,-0.0523 0.245948,-0.0708 0.245949,-0.0708 0.237466,-0.0734 0.237468,-0.0734 0.233226,-0.0767 0.233226,-0.0767 0.254429,-0.0893 0.254429,-0.0893 0.09329,-0.0725 0.09329,-0.0725 0.17386,-0.1399 0.173861,-0.1399 0.152658,-0.1273 0.152658,-0.12729 0.148418,-0.12747 0.148417,-0.12748 0.152658,-0.13565 0.152658,-0.13566 0.106012,-0.0969 0.106012,-0.0969 0.236648,-0.22553 0.236647,-0.22553 0.191642,-0.19939 0.191642,-0.19938 0.114615,-0.12714 0.114614,-0.12713 0.09811,-0.11449 0.09811,-0.11449 0.08483,-0.10601 0.08483,-0.10601 0.08504,-0.1145 0.08504,-0.11449 0.07834,-0.11713 0.07834,-0.11713 0.05897,-0.0991 0.05898,-0.0991 0.06236,-0.12297 0.06236,-0.12298 0.06351,-0.14841 0.06351,-0.14842 0.05524,-0.15266 0.05525,-0.15266 0.04283,-0.1357 0.04283,-0.13569 0.03803,-0.13569 0.03803,-0.1357 0.03924,-0.15673 0.03923,-0.15673 0.046,-0.20964 0.046,-0.20965 0.04626,-0.25273 0.04626,-0.25275 0.03852,-0.25018 0.03852,-0.25019 0.03376,-0.26715 0.03376,-0.26715 0.02533,-0.24171 0.02533,-0.24171 0.02141,-0.25443 0.02141,-0.25442 0.01715,-0.26716 0.01715,-0.26715 0.0052,-0.17809 0.0052,-0.17811 -0.03123,-0.18233 -0.03123,-0.18235 -0.03811,-0.18234 -0.03811,-0.18233 -0.0498,-0.19507 -0.0498,-0.19506 -0.05098,-0.16962 -0.05098,-0.16962 -0.05465,-0.16113 -0.05465,-0.16114 -0.05227,-0.13812 -0.05228,-0.13811 -0.06225,-0.15024 -0.06224,-0.15024 -0.0654,-0.14418 -0.0654,-0.14417 -0.100396,-0.19931 -0.100397,-0.1993 -0.07797,-0.13994 -0.07797,-0.13994 -0.09403,-0.15689 -0.09403,-0.1569 -0.132652,-0.1993 -0.132652,-0.1993 -0.09499,-0.1301 -0.09499,-0.1301 -0.0732,-0.0947 -0.07319,-0.0947 -0.09373,-0.11449 -0.09373,-0.1145 -0.11562,-0.13214 -0.11562,-0.13215 -0.15238,-0.16045 -0.15238,-0.16044 -0.130635,-0.12331 -0.130638,-0.12332 -0.08905,-0.0804 -0.08905,-0.0804 -0.08481,-0.0725 -0.08481,-0.0725 -0.114492,-0.0923 -0.114493,-0.0923 -0.169619,-0.12655 -0.16962,-0.12655 -0.207783,-0.13774 -0.207783,-0.13773 -0.127215,-0.0763 -0.127215,-0.0763 -0.139936,-0.0779 -0.139935,-0.0779 -0.18234,-0.0919 -0.18234,-0.0919 -0.144177,-0.0654 -0.144176,-0.0654 -0.139936,-0.0579 -0.139936,-0.0579 -0.156896,-0.0588 -0.1569,-0.0588 -0.182339,-0.0601 -0.18234,-0.0601 -0.165379,-0.0475 -0.165379,-0.0474 -0.173859,-0.0427 -0.173861,-0.0428 -0.228987,-0.0455 -0.228986,-0.0455 -0.172798,-0.0262 -0.172798,-0.0262 -0.5726805,-0.0379 -0.5726799,-0.0379 z m -0.2934408,2.73374 0.559744,0.003 0.1526577,0.009 0.1526586,0.009 0.1781012,0.013 0.1781013,0.0129 0.122974,0.0125 0.122975,0.0125 0.169619,0.0214 0.16962,0.0214 0.152658,0.0257 0.152659,0.0257 0.101772,0.0213 0.101772,0.0213 0.118733,0.0295 0.118734,0.0295 0.101772,0.0302 0.101772,0.0302 0.09955,0.037 0.09955,0.037 0.104785,0.0472 0.104785,0.0472 0.134904,0.0767 0.134904,0.0767 0.157009,0.10443 0.157009,0.10444 0.144067,0.10815 0.144066,0.10815 0.131454,0.10686 0.131456,0.10686 0.127216,0.10969 0.127215,0.10969 0.08905,0.0805 0.08905,0.0805 0.186581,0.17563 0.18658,0.17562 0.233227,0.23649 0.233225,0.23649 0.0996,0.10679 0.0996,0.10679 0.03898,0.0839 0.03897,0.0839 0.07234,0.16538 0.07234,0.16538 0.0805,0.19506 0.0805,0.19506 0.0799,0.20663 0.0799,0.20662 0.06847,0.19198 0.06847,0.19199 0.04623,0.13994 0.04623,0.13993 0.05527,0.18234 0.05527,0.18234 0.04572,0.1781 0.04572,0.1781 0.02528,0.11449 0.02528,0.11448 0.02555,0.14843 0.02555,0.14842 0.01494,0.11873 0.01495,0.11874 8.5e-5,0.21627 8.4e-5,0.21626 -0.01518,0.12297 -0.01518,0.12298 -0.0287,0.16962 -0.0287,0.16961 -0.03383,0.16114 -0.03383,0.16114 -0.03048,0.13146 -0.03047,0.13145 -0.04684,0.18233 -0.04684,0.18235 -0.05552,0.19929 -0.05552,0.19931 -0.05029,0.16826 -0.0503,0.16825 -0.08581,0.15825 -0.08581,0.15826 -0.123127,0.21626 -0.123127,0.21628 -0.08455,0.13994 -0.08455,0.13993 -0.0974,0.14842 -0.0974,0.14841 -0.05549,0.0763 -0.05549,0.0763 -0.07996,0.0959 -0.07996,0.096 -0.04525,0.0507 -0.04524,0.0507 -1.364006,0.8874 -1.36396,0.88739 -0.118733,0.0369 -0.118734,0.0369 -0.139935,0.0375 -0.139937,0.0375 -0.135695,0.0299 -0.135694,0.03 -0.148418,0.0255 -0.148417,0.0255 -0.1314538,0.0168 -0.1314558,0.0168 -0.1484178,0.0135 -0.148417,0.0135 -0.2671507,0.005 -0.2671506,0.005 -0.1738605,-0.0101 -0.1738606,-0.0101 -0.1229743,-0.0124 -0.1229743,-0.0124 -0.1526578,-0.0216 -0.1526585,-0.0216 -0.1722275,-0.0339 -0.1722283,-0.0339 -0.1627706,-0.0413 -0.1627698,-0.0413 -0.1431406,-0.0436 -0.1431399,-0.0436 -0.149758,-0.0541 -0.1497579,-0.0541 -0.1327893,-0.0553 -0.1327894,-0.0553 -0.095892,-0.0437 -0.095891,-0.0437 -0.1089442,-0.0545 -0.1089442,-0.0545 -0.124284,-0.0687 -0.1242839,-0.0687 -0.097532,-0.0594 -0.097532,-0.0594 -0.1516378,-0.10164 -0.1516361,-0.10164 -0.1239943,-0.0931 -0.1239943,-0.0931 -0.093237,-0.0773 -0.093236,-0.0773 -0.1145184,-0.10177 -0.1145185,-0.10178 -0.1357246,-0.13573 -0.1357254,-0.13572 -0.1017724,-0.11452 -0.1017723,-0.11451 -0.076967,-0.0932 -0.076967,-0.0932 -0.067931,-0.089 -0.067931,-0.0891 -0.081027,-0.11467 -0.081027,-0.11466 -0.081373,-0.12853 -0.081382,-0.12853 -0.081043,-0.14135 -0.081043,-0.14134 -0.076472,-0.15275 -0.076472,-0.15276 -0.053704,-0.11998 -0.053704,-0.11998 -0.05552,-0.14 -0.05552,-0.14001 -0.04754,-0.13987 -0.04754,-0.13986 -0.037464,-0.12722 -0.037464,-0.12722 -0.034213,-0.13691 -0.034213,-0.13692 -0.033611,-0.1684 -0.03361,-0.16839 -0.02101,-0.14418 -0.02101,-0.14418 -0.01331,-0.13145 -0.013311,-0.13145 -0.00792,-0.40337 -0.00792,-0.40336 0.008,-0.11822 0.008,-0.11822 0.01284,-0.12721 0.01284,-0.12721 0.021521,-0.14843 0.021521,-0.14841 0.032761,-0.1654 0.032761,-0.16541 0.034989,-0.13991 0.034989,-0.1399 0.03772,-0.12855 0.03772,-0.12853 0.04749,-0.13862 0.047499,-0.13861 0.055503,-0.13994 0.055503,-0.13993 0.067106,-0.14842 0.067106,-0.14842 0.071124,-0.13669 0.071124,-0.1367 0.063491,-0.11007 0.063491,-0.11007 0.060966,-0.0967 0.060966,-0.0967 0.07209,-0.10601 0.07209,-0.10601 0.098477,-0.13146 0.098476,-0.13145 0.1024861,-0.12297 0.1024829,-0.12298 0.092741,-0.10177 0.092741,-0.10177 0.1314632,-0.13072 0.1314632,-0.13073 0.1229743,-0.10986 0.1229744,-0.10986 0.1399356,-0.11236 0.1399355,-0.11236 0.1102514,-0.0803 0.1102513,-0.0803 0.1272159,-0.0848 0.1272151,-0.0848 0.1206423,-0.0733 0.1206415,-0.0733 0.1422684,-0.0781 0.1422676,-0.0781 0.1444288,-0.0698 0.1444297,-0.0698 0.148162,-0.0634 0.148162,-0.0634 0.1738605,-0.0639 0.1738606,-0.0639 0.1441763,-0.0437 0.1441771,-0.0437 0.1469572,-0.0381 0.1469581,-0.0381 0.1625998,-0.007 0.1625973,-0.007 z m 4.5212938,3.10872 -0.0094,7e-4 -0.814172,0.37725 -0.814173,0.37725 -0.733604,0.32098 -0.733604,0.32098 -0.279454,0.11165 -0.2794527,0.11165 -0.4075055,0.15076 -0.4075045,0.15075 -0.4494918,0.13796 -0.449491,0.13794 -0.00734,0.007 -0.00734,0.007 0.013872,0.56261 0.013872,0.56259 0.020605,0.39014 0.020605,0.39011 0.00919,0.33076 0.00919,0.33077 -0.017659,0.3562 -0.017659,0.3562 -0.01067,0.3774 -0.01067,0.3774 0.031745,0.36893 0.031746,0.36891 0.00899,0.36186 0.00899,0.36186 -0.016628,0.3251 -0.016628,0.3251 -0.00388,0.0552 -0.00388,0.0552 0.5315179,-0.002 0.531517,-0.002 0.3898494,-0.0297 0.3898502,-0.0297 0.00322,-0.003 0.00322,-0.003 0.012023,-0.37164 0.012023,-0.37164 -0.020308,-0.36044 -0.020308,-0.36044 0.042647,-0.36892 0.042638,-0.36892 -0.027067,-0.39013 -0.027067,-0.39012 0.0088,-0.50037 0.0088,-0.50039 0.00829,-0.25867 0.00828,-0.25867 0.00936,-0.30521 0.00936,-0.30521 0.00149,-6.8e-4 0.00149,-6.8e-4 0.742085,-0.30984 0.742086,-0.30984 0.750565,-0.23519 0.750566,-0.2352 0.558703,-0.26432 0.558701,-0.26432 0.0037,-0.01 0.0037,-0.01 -0.349445,-0.82361 -0.349444,-0.82361 -0.0094,7.1e-4 z"
       id="path6512" /></g></svg>
